<svg id="mermaid-1618933801617" width="100%" xmlns="http://www.w3.org/2000/svg" xmlns:xlink="http://www.w3.org/1999/xlink" height="373" style="max-width: 2954px;" viewBox="-20 -20 2954 373"><style>#mermaid-1618933801617{font-family:"trebuchet ms",verdana,arial,sans-serif;font-size:16px;fill:#333;}#mermaid-1618933801617 .error-icon{fill:#552222;}#mermaid-1618933801617 .error-text{fill:#552222;stroke:#552222;}#mermaid-1618933801617 .edge-thickness-normal{stroke-width:2px;}#mermaid-1618933801617 .edge-thickness-thick{stroke-width:3.5px;}#mermaid-1618933801617 .edge-pattern-solid{stroke-dasharray:0;}#mermaid-1618933801617 .edge-pattern-dashed{stroke-dasharray:3;}#mermaid-1618933801617 .edge-pattern-dotted{stroke-dasharray:2;}#mermaid-1618933801617 .marker{fill:#333333;stroke:#333333;}#mermaid-1618933801617 .marker.cross{stroke:#333333;}#mermaid-1618933801617 svg{font-family:"trebuchet ms",verdana,arial,sans-serif;font-size:16px;}#mermaid-1618933801617 g.classGroup text{fill:#9370DB;fill:#131300;stroke:none;font-family:"trebuchet ms",verdana,arial,sans-serif;font-size:10px;}#mermaid-1618933801617 g.classGroup text .title{font-weight:bolder;}#mermaid-1618933801617 .classTitle{font-weight:bolder;}#mermaid-1618933801617 .node rect,#mermaid-1618933801617 .node circle,#mermaid-1618933801617 .node ellipse,#mermaid-1618933801617 .node polygon,#mermaid-1618933801617 .node path{fill:#ECECFF;stroke:#9370DB;stroke-width:1px;}#mermaid-1618933801617 .divider{stroke:#9370DB;stroke:1;}#mermaid-1618933801617 g.clickable{cursor:pointer;}#mermaid-1618933801617 g.classGroup rect{fill:#ECECFF;stroke:#9370DB;}#mermaid-1618933801617 g.classGroup line{stroke:#9370DB;stroke-width:1;}#mermaid-1618933801617 .classLabel .box{stroke:none;stroke-width:0;fill:#ECECFF;opacity:0.5;}#mermaid-1618933801617 .classLabel .label{fill:#9370DB;font-size:10px;}#mermaid-1618933801617 .relation{stroke:#333333;stroke-width:1;fill:none;}#mermaid-1618933801617 .dashed-line{stroke-dasharray:3;}#mermaid-1618933801617 #compositionStart,#mermaid-1618933801617 .composition{fill:#333333 !important;stroke:#333333 !important;stroke-width:1;}#mermaid-1618933801617 #compositionEnd,#mermaid-1618933801617 .composition{fill:#333333 !important;stroke:#333333 !important;stroke-width:1;}#mermaid-1618933801617 #dependencyStart,#mermaid-1618933801617 .dependency{fill:#333333 !important;stroke:#333333 !important;stroke-width:1;}#mermaid-1618933801617 #dependencyStart,#mermaid-1618933801617 .dependency{fill:#333333 !important;stroke:#333333 !important;stroke-width:1;}#mermaid-1618933801617 #extensionStart,#mermaid-1618933801617 .extension{fill:#333333 !important;stroke:#333333 !important;stroke-width:1;}#mermaid-1618933801617 #extensionEnd,#mermaid-1618933801617 .extension{fill:#333333 !important;stroke:#333333 !important;stroke-width:1;}#mermaid-1618933801617 #aggregationStart,#mermaid-1618933801617 .aggregation{fill:#ECECFF !important;stroke:#333333 !important;stroke-width:1;}#mermaid-1618933801617 #aggregationEnd,#mermaid-1618933801617 .aggregation{fill:#ECECFF !important;stroke:#333333 !important;stroke-width:1;}#mermaid-1618933801617 .edgeTerminals{font-size:11px;}#mermaid-1618933801617:root{--mermaid-font-family:"trebuchet ms",verdana,arial,sans-serif;}#mermaid-1618933801617 class{fill:apa;}</style><g></g><defs><marker id="extensionStart" class="extension" refX="0" refY="7" markerWidth="190" markerHeight="240" orient="auto"><path d="M 1,7 L18,13 V 1 Z"></path></marker></defs><defs><marker id="extensionEnd" refX="19" refY="7" markerWidth="20" markerHeight="28" orient="auto"><path d="M 1,1 V 13 L18,7 Z"></path></marker></defs><defs><marker id="compositionStart" class="extension" refX="0" refY="7" markerWidth="190" markerHeight="240" orient="auto"><path d="M 18,7 L9,13 L1,7 L9,1 Z"></path></marker></defs><defs><marker id="compositionEnd" refX="19" refY="7" markerWidth="20" markerHeight="28" orient="auto"><path d="M 18,7 L9,13 L1,7 L9,1 Z"></path></marker></defs><defs><marker id="aggregationStart" class="extension" refX="0" refY="7" markerWidth="190" markerHeight="240" orient="auto"><path d="M 18,7 L9,13 L1,7 L9,1 Z"></path></marker></defs><defs><marker id="aggregationEnd" refX="19" refY="7" markerWidth="20" markerHeight="28" orient="auto"><path d="M 18,7 L9,13 L1,7 L9,1 Z"></path></marker></defs><defs><marker id="dependencyStart" class="extension" refX="0" refY="7" markerWidth="190" markerHeight="240" orient="auto"><path d="M 5,7 L9,13 L1,7 L9,1 Z"></path></marker></defs><defs><marker id="dependencyEnd" refX="19" refY="7" markerWidth="20" markerHeight="28" orient="auto"><path d="M 18,7 L9,13 L14,7 L9,1 Z"></path></marker></defs><g id="classid-Instruction-19525" class="classGroup" transform="translate(1223.5,0 )"><rect x="0" y="0" width="220" height="128" class=" "></rect><text y="15" x="0"><tspan class="title" x="84">Instruction</tspan></text><line x1="0" y1="21" y2="21" x2="220"></line><text x="5" y="31" fill="white" class="classText"><tspan x="5">string name</tspan><tspan x="5" dy="10">string rd</tspan><tspan x="5" dy="10">string rs1</tspan><tspan x="5" dy="10">string rs2</tspan><tspan x="5" dy="10">string opcdoe</tspan><tspan x="5" dy="10">int imme</tspan><tspan x="5" dy="10">map&lt;string,vector&lt;string&gt;&gt;* insts</tspan></text><line x1="0" y1="97" y2="97" x2="220"></line><text x="5" y="112" fill="white" class="classText"><tspan x="5">virtual translateResult</tspan><tspan x="5" dy="10">intToBin(int num,int size,bool reversed=true)</tspan></text></g><g id="classid-U_Type-19526" class="classGroup" transform="translate(166,178 )"><rect x="0" y="0" width="112" height="47" class=" "></rect><text y="15" x="0"><tspan class="title" x="38.5">U_Type</tspan></text><line x1="0" y1="21" y2="21" x2="112"></line><text x="5" y="31" fill="white" class="classText"></text><line x1="0" y1="26" y2="26" x2="112"></line><text x="5" y="41" fill="white" class="classText"><tspan x="5">string translateResult</tspan></text></g><g id="classid-UJ_Type-19527" class="classGroup" transform="translate(536.5,178 )"><rect x="0" y="0" width="112" height="47" class=" "></rect><text y="15" x="0"><tspan class="title" x="36">UJ_Type</tspan></text><line x1="0" y1="21" y2="21" x2="112"></line><text x="5" y="31" fill="white" class="classText"></text><line x1="0" y1="26" y2="26" x2="112"></line><text x="5" y="41" fill="white" class="classText"><tspan x="5">string translateResult</tspan></text></g><g id="classid-I_Type-19528" class="classGroup" transform="translate(1030.5,178 )"><rect x="0" y="0" width="112" height="47" class=" "></rect><text y="15" x="0"><tspan class="title" x="40.5">I_Type</tspan></text><line x1="0" y1="21" y2="21" x2="112"></line><text x="5" y="31" fill="white" class="classText"></text><line x1="0" y1="26" y2="26" x2="112"></line><text x="5" y="41" fill="white" class="classText"><tspan x="5">string translateResult</tspan></text></g><g id="classid-SB_Type-19529" class="classGroup" transform="translate(1524.5,178 )"><rect x="0" y="0" width="112" height="47" class=" "></rect><text y="15" x="0"><tspan class="title" x="36.5">SB_Type</tspan></text><line x1="0" y1="21" y2="21" x2="112"></line><text x="5" y="31" fill="white" class="classText"></text><line x1="0" y1="26" y2="26" x2="112"></line><text x="5" y="41" fill="white" class="classText"><tspan x="5">string translateResult</tspan></text></g><g id="classid-S_Type-19530" class="classGroup" transform="translate(1771.5,178 )"><rect x="0" y="0" width="112" height="47" class=" "></rect><text y="15" x="0"><tspan class="title" x="39.5">S_Type</tspan></text><line x1="0" y1="21" y2="21" x2="112"></line><text x="5" y="31" fill="white" class="classText"></text><line x1="0" y1="26" y2="26" x2="112"></line><text x="5" y="41" fill="white" class="classText"><tspan x="5">string translateResult</tspan></text></g><g id="classid-R_Type-19531" class="classGroup" transform="translate(2389,178 )"><rect x="0" y="0" width="112" height="47" class=" "></rect><text y="15" x="0"><tspan class="title" x="39">R_Type</tspan></text><line x1="0" y1="21" y2="21" x2="112"></line><text x="5" y="31" fill="white" class="classText"></text><line x1="0" y1="26" y2="26" x2="112"></line><text x="5" y="41" fill="white" class="classText"><tspan x="5">string translateResult</tspan></text></g><g id="classid-lui-19532" class="classGroup" transform="translate(0,275 )"><rect x="0" y="0" width="197" height="58" class=" "></rect><text y="15" x="0"><tspan class="title" x="92.5">lui</tspan></text><line x1="0" y1="21" y2="21" x2="197"></line><text x="5" y="31" fill="white" class="classText"><tspan x="5">map&lt;string,vector&lt;string&gt;&gt; insts_names</tspan></text><line x1="0" y1="37" y2="37" x2="197"></line><text x="5" y="52" fill="white" class="classText"><tspan x="5">bool isThisType</tspan></text></g><g id="classid-auipc-19533" class="classGroup" transform="translate(247,275 )"><rect x="0" y="0" width="197" height="58" class=" "></rect><text y="15" x="0"><tspan class="title" x="86">auipc</tspan></text><line x1="0" y1="21" y2="21" x2="197"></line><text x="5" y="31" fill="white" class="classText"><tspan x="5">map&lt;string,vector&lt;string&gt;&gt; insts_names</tspan></text><line x1="0" y1="37" y2="37" x2="197"></line><text x="5" y="52" fill="white" class="classText"><tspan x="5">bool isThisType</tspan></text></g><g id="classid-jal-19534" class="classGroup" transform="translate(494,275 )"><rect x="0" y="0" width="197" height="58" class=" "></rect><text y="15" x="0"><tspan class="title" x="92.5">jal</tspan></text><line x1="0" y1="21" y2="21" x2="197"></line><text x="5" y="31" fill="white" class="classText"><tspan x="5">map&lt;string,vector&lt;string&gt;&gt; insts_names</tspan></text><line x1="0" y1="37" y2="37" x2="197"></line><text x="5" y="52" fill="white" class="classText"><tspan x="5">bool isThisType</tspan></text></g><g id="classid-jalr-19535" class="classGroup" transform="translate(741,275 )"><rect x="0" y="0" width="197" height="58" class=" "></rect><text y="15" x="0"><tspan class="title" x="90">jalr</tspan></text><line x1="0" y1="21" y2="21" x2="197"></line><text x="5" y="31" fill="white" class="classText"><tspan x="5">map&lt;string,vector&lt;string&gt;&gt; insts_names</tspan></text><line x1="0" y1="37" y2="37" x2="197"></line><text x="5" y="52" fill="white" class="classText"><tspan x="5">bool isThisType</tspan></text></g><g id="classid-branch-19536" class="classGroup" transform="translate(1482,275 )"><rect x="0" y="0" width="197" height="58" class=" "></rect><text y="15" x="0"><tspan class="title" x="82">branch</tspan></text><line x1="0" y1="21" y2="21" x2="197"></line><text x="5" y="31" fill="white" class="classText"><tspan x="5">map&lt;string,vector&lt;string&gt;&gt; insts_names</tspan></text><line x1="0" y1="37" y2="37" x2="197"></line><text x="5" y="52" fill="white" class="classText"><tspan x="5">bool isThisType</tspan></text></g><g id="classid-load-19537" class="classGroup" transform="translate(988,275 )"><rect x="0" y="0" width="197" height="58" class=" "></rect><text y="15" x="0"><tspan class="title" x="88.5">load</tspan></text><line x1="0" y1="21" y2="21" x2="197"></line><text x="5" y="31" fill="white" class="classText"><tspan x="5">map&lt;string,vector&lt;string&gt;&gt; insts_names</tspan></text><line x1="0" y1="37" y2="37" x2="197"></line><text x="5" y="52" fill="white" class="classText"><tspan x="5">bool isThisType</tspan></text></g><g id="classid-save-19538" class="classGroup" transform="translate(1729,275 )"><rect x="0" y="0" width="197" height="58" class=" "></rect><text y="15" x="0"><tspan class="title" x="88">save</tspan></text><line x1="0" y1="21" y2="21" x2="197"></line><text x="5" y="31" fill="white" class="classText"><tspan x="5">map&lt;string,vector&lt;string&gt;&gt; insts_names</tspan></text><line x1="0" y1="37" y2="37" x2="197"></line><text x="5" y="52" fill="white" class="classText"><tspan x="5">bool isThisType</tspan></text></g><g id="classid-int_imme-19539" class="classGroup" transform="translate(1235,275 )"><rect x="0" y="0" width="197" height="58" class=" "></rect><text y="15" x="0"><tspan class="title" x="75.5">int_imme</tspan></text><line x1="0" y1="21" y2="21" x2="197"></line><text x="5" y="31" fill="white" class="classText"><tspan x="5">map&lt;string,vector&lt;string&gt;&gt; insts_names</tspan></text><line x1="0" y1="37" y2="37" x2="197"></line><text x="5" y="52" fill="white" class="classText"><tspan x="5">bool isThisType</tspan></text></g><g id="classid-shift_imme-19540" class="classGroup" transform="translate(1976,275 )"><rect x="0" y="0" width="197" height="58" class=" "></rect><text y="15" x="0"><tspan class="title" x="71.5">shift_imme</tspan></text><line x1="0" y1="21" y2="21" x2="197"></line><text x="5" y="31" fill="white" class="classText"><tspan x="5">map&lt;string,vector&lt;string&gt;&gt; insts_names</tspan></text><line x1="0" y1="37" y2="37" x2="197"></line><text x="5" y="52" fill="white" class="classText"><tspan x="5">bool isThisType</tspan></text></g><g id="classid-int_reg-19541" class="classGroup" transform="translate(2223,275 )"><rect x="0" y="0" width="197" height="58" class=" "></rect><text y="15" x="0"><tspan class="title" x="80.5">int_reg</tspan></text><line x1="0" y1="21" y2="21" x2="197"></line><text x="5" y="31" fill="white" class="classText"><tspan x="5">map&lt;string,vector&lt;string&gt;&gt; insts_names</tspan></text><line x1="0" y1="37" y2="37" x2="197"></line><text x="5" y="52" fill="white" class="classText"><tspan x="5">bool isThisType</tspan></text></g><g id="classid-shift_reg-19542" class="classGroup" transform="translate(2470,275 )"><rect x="0" y="0" width="197" height="58" class=" "></rect><text y="15" x="0"><tspan class="title" x="76.5">shift_reg</tspan></text><line x1="0" y1="21" y2="21" x2="197"></line><text x="5" y="31" fill="white" class="classText"><tspan x="5">map&lt;string,vector&lt;string&gt;&gt; insts_names</tspan></text><line x1="0" y1="37" y2="37" x2="197"></line><text x="5" y="52" fill="white" class="classText"><tspan x="5">bool isThisType</tspan></text></g><g id="classid-mul_reg-19543" class="classGroup" transform="translate(2717,275 )"><rect x="0" y="0" width="197" height="58" class=" "></rect><text y="15" x="0"><tspan class="title" x="78">mul_reg</tspan></text><line x1="0" y1="21" y2="21" x2="197"></line><text x="5" y="31" fill="white" class="classText"><tspan x="5">map&lt;string,vector&lt;string&gt;&gt; insts_names</tspan></text><line x1="0" y1="37" y2="37" x2="197"></line><text x="5" y="52" fill="white" class="classText"><tspan x="5">bool isThisType</tspan></text></g><path d="M1223.5,72.80791722896986L1056.5833333333333,86.17326435747488C889.6666666666666,99.53861148597991,555.8333333333334,126.26930574298996,388.9166666666667,143.80131953816164C222,161.33333333333334,222,169.66666666666666,222,173.83333333333334L222,178" id="edge5624" class="relation" marker-end="url(#dependencyEnd)"></path><path d="M1223.5,77.21187584345479L1118.3333333333333,89.84322986954567C1013.1666666666666,102.47458389563651,802.8333333333334,127.73729194781826,697.6666666666666,144.5353126405758C592.5,161.33333333333334,592.5,169.66666666666666,592.5,173.83333333333334L592.5,178" id="edge5625" class="relation" marker-end="url(#dependencyEnd)"></path><path d="M1223.5,103.63562753036437L1200.6666666666667,111.86302294197031C1177.8333333333333,120.09041835357625,1132.1666666666667,136.54520917678812,1109.3333333333333,148.93927125506073C1086.5,161.33333333333334,1086.5,169.66666666666666,1086.5,173.83333333333334L1086.5,178" id="edge5626" class="relation" marker-end="url(#dependencyEnd)"></path><path d="M1443.5,103.63562753036437L1466.3333333333333,111.86302294197031C1489.1666666666667,120.09041835357625,1534.8333333333333,136.54520917678812,1557.6666666666667,148.93927125506073C1580.5,161.33333333333334,1580.5,169.66666666666666,1580.5,173.83333333333334L1580.5,178" id="edge5627" class="relation" marker-end="url(#dependencyEnd)"></path><path d="M1443.5,83.8178137651822L1507.5,95.34817813765183C1571.5,106.87854251012146,1699.5,129.93927125506073,1763.5,145.63630229419704C1827.5,161.33333333333334,1827.5,169.66666666666666,1827.5,173.83333333333334L1827.5,178" id="edge5628" class="relation" marker-end="url(#dependencyEnd)"></path><path d="M1443.5,72.80791722896986L1610.4166666666667,86.17326435747488C1777.3333333333333,99.53861148597991,2111.1666666666665,126.26930574298996,2278.0833333333335,143.80131953816164C2445,161.33333333333334,2445,169.66666666666666,2445,173.83333333333334L2445,178" id="edge5629" class="relation" marker-end="url(#dependencyEnd)"></path><path d="M166,223.4919028340081L154.75,227.9099190283401C143.5,232.32793522267207,121,241.16396761133603,109.75,249.7486504723347C98.5,258.3333333333333,98.5,266.6666666666667,98.5,270.8333333333333L98.5,275" id="edge5630" class="relation" marker-end="url(#dependencyEnd)"></path><path d="M278,223.4919028340081L289.25,227.9099190283401C300.5,232.32793522267207,323,241.16396761133603,334.25,249.7486504723347C345.5,258.3333333333333,345.5,266.6666666666667,345.5,270.8333333333333L345.5,275" id="edge5631" class="relation" marker-end="url(#dependencyEnd)"></path><path d="M592.5,225L592.5,229.16666666666666C592.5,233.33333333333334,592.5,241.66666666666666,592.5,250C592.5,258.3333333333333,592.5,266.6666666666667,592.5,270.8333333333333L592.5,275" id="edge5632" class="relation" marker-end="url(#dependencyEnd)"></path><path d="M1030.5,212.49595141700405L998.6666666666666,218.74662618083673C966.8333333333334,224.99730094466938,903.1666666666666,237.4986504723347,871.3333333333334,247.915991902834C839.5,258.3333333333333,839.5,266.6666666666667,839.5,270.8333333333333L839.5,275" id="edge5633" class="relation" marker-end="url(#dependencyEnd)"></path><path d="M1580.5,225L1580.5,229.16666666666666C1580.5,233.33333333333334,1580.5,241.66666666666666,1580.5,250C1580.5,258.3333333333333,1580.5,266.6666666666667,1580.5,270.8333333333333L1580.5,275" id="edge5634" class="relation" marker-end="url(#dependencyEnd)"></path><path d="M1086.5,225L1086.5,229.16666666666666C1086.5,233.33333333333334,1086.5,241.66666666666666,1086.5,250C1086.5,258.3333333333333,1086.5,266.6666666666667,1086.5,270.8333333333333L1086.5,275" id="edge5635" class="relation" marker-end="url(#dependencyEnd)"></path><path d="M1827.5,225L1827.5,229.16666666666666C1827.5,233.33333333333334,1827.5,241.66666666666666,1827.5,250C1827.5,258.3333333333333,1827.5,266.6666666666667,1827.5,270.8333333333333L1827.5,275" id="edge5636" class="relation" marker-end="url(#dependencyEnd)"></path><path d="M1142.5,212.49595141700405L1174.3333333333333,218.74662618083673C1206.1666666666667,224.99730094466938,1269.8333333333333,237.4986504723347,1301.6666666666667,247.915991902834C1333.5,258.3333333333333,1333.5,266.6666666666667,1333.5,270.8333333333333L1333.5,275" id="edge5637" class="relation" marker-end="url(#dependencyEnd)"></path><path d="M2389,208.8306342780027L2336.5833333333335,215.69219523166893C2284.1666666666665,222.55375618533512,2179.3333333333335,236.27687809266754,2126.9166666666665,247.30510571300044C2074.5,258.3333333333333,2074.5,266.6666666666667,2074.5,270.8333333333333L2074.5,275" id="edge5638" class="relation" marker-end="url(#dependencyEnd)"></path><path d="M2389,223.4919028340081L2377.75,227.9099190283401C2366.5,232.32793522267207,2344,241.16396761133603,2332.75,249.7486504723347C2321.5,258.3333333333333,2321.5,266.6666666666667,2321.5,270.8333333333333L2321.5,275" id="edge5639" class="relation" marker-end="url(#dependencyEnd)"></path><path d="M2501,223.4919028340081L2512.25,227.9099190283401C2523.5,232.32793522267207,2546,241.16396761133603,2557.25,249.7486504723347C2568.5,258.3333333333333,2568.5,266.6666666666667,2568.5,270.8333333333333L2568.5,275" id="edge5640" class="relation" marker-end="url(#dependencyEnd)"></path><path d="M2501,208.8306342780027L2553.4166666666665,215.69219523166893C2605.8333333333335,222.55375618533512,2710.6666666666665,236.27687809266754,2763.0833333333335,247.30510571300044C2815.5,258.3333333333333,2815.5,266.6666666666667,2815.5,270.8333333333333L2815.5,275" id="edge5641" class="relation" marker-end="url(#dependencyEnd)"></path></svg>